{
  "accessors": [
    {
      "bufferView": 2,
      "componentType": 5126,
      "count": 195,
      "max": [
        0.008009999990463257,
        -0.06621900200843811,
        0.23956799507141113
      ],
      "min": [
        -0.008009999990463257,
        -0.13394799828529358,
        -0.3170570135116577
      ],
      "type": "VEC3"
    },
    {
      "bufferView": 2,
      "byteOffset": 2340,
      "componentType": 5126,
      "count": 195,
      "max": [
        0.03469293564558029,
        -0.238468199968338,
        0.9710566401481628
      ],
      "min": [
        -0.03469293564558029,
        -0.9999033808708191,
        -0.44383704662323
      ],
      "type": "VEC3"
    },
    {
      "bufferView": 1,
      "componentType": 5126,
      "count": 195,
      "max": [
        0.9634940028190613,
        0.926609992980957
      ],
      "min": [
        0.9634940028190613,
        0.926609992980957
      ],
      "type": "VEC2"
    },
    {
      "bufferView": 0,
      "componentType": 5125,
      "count": 912,
      "type": "SCALAR"
    },
    {
      "bufferView": 2,
      "byteOffset": 4680,
      "componentType": 5126,
      "count": 65,
      "max": [
        0.0075889998115599155,
        -0.06368400156497955,
        0.27761998772621155
      ],
      "min": [
        -0.0075889998115599155,
        -0.06963600218296051,
        0.23956799507141113
      ],
      "type": "VEC3"
    },
    {
      "bufferView": 2,
      "byteOffset": 5460,
      "componentType": 5126,
      "count": 65,
      "max": [
        0.01964961737394333,
        -0.15981915593147278,
        0.9871463775634766
      ],
      "min": [
        -0.01964961737394333,
        -0.9991602301597595,
        -0.4747047424316406
      ],
      "type": "VEC3"
    },
    {
      "bufferView": 1,
      "byteOffset": 1560,
      "componentType": 5126,
      "count": 65,
      "max": [
        0.9634940028190613,
        0.926609992980957
      ],
      "min": [
        0.9634940028190613,
        0.926609992980957
      ],
      "type": "VEC2"
    },
    {
      "bufferView": 0,
      "byteOffset": 3648,
      "componentType": 5125,
      "count": 288,
      "type": "SCALAR"
    },
    {
      "bufferView": 2,
      "byteOffset": 6240,
      "componentType": 5126,
      "count": 1810,
      "max": [
        0.005005999933928251,
        -0.06790400296449661,
        0.2779200077056885
      ],
      "min": [
        -0.004993999842554331,
        -0.10974100232124329,
        -0.3170520067214966
      ],
      "type": "VEC3"
    },
    {
      "bufferView": 2,
      "byteOffset": 27960,
      "componentType": 5126,
      "count": 1810,
      "max": [
        1.0,
        0.9997425079345703,
        0.999840497970581
      ],
      "min": [
        -1.0,
        -0.9997707009315491,
        -0.9998404383659363
      ],
      "type": "VEC3"
    },
    {
      "bufferView": 1,
      "byteOffset": 2080,
      "componentType": 5126,
      "count": 1810,
      "max": [
        0.9634940028190613,
        0.926609992980957
      ],
      "min": [
        0.9634940028190613,
        0.926609992980957
      ],
      "type": "VEC2"
    },
    {
      "bufferView": 0,
      "byteOffset": 4800,
      "componentType": 5125,
      "count": 7524,
      "type": "SCALAR"
    },
    {
      "bufferView": 2,
      "byteOffset": 49680,
      "componentType": 5126,
      "count": 33482,
      "max": [
        0.3143810033798218,
        0.13722899556159973,
        0.3061630129814148
      ],
      "min": [
        -0.3143810033798218,
        -0.13864900171756744,
        -0.3427099883556366
      ],
      "type": "VEC3"
    },
    {
      "bufferView": 2,
      "byteOffset": 451464,
      "componentType": 5126,
      "count": 33482,
      "max": [
        0.9999967217445374,
        0.9999988675117493,
        0.9973351955413818
      ],
      "min": [
        -0.9999978542327881,
        -0.9999898076057434,
        -0.999953031539917
      ],
      "type": "VEC3"
    },
    {
      "bufferView": 1,
      "byteOffset": 16560,
      "componentType": 5126,
      "count": 33482,
      "max": [
        0.9763789772987366,
        0.9480559825897217
      ],
      "min": [
        0.9623990058898926,
        0.926609992980957
      ],
      "type": "VEC2"
    },
    {
      "bufferView": 0,
      "byteOffset": 34896,
      "componentType": 5125,
      "count": 194976,
      "type": "SCALAR"
    },
    {
      "bufferView": 2,
      "byteOffset": 853248,
      "componentType": 5126,
      "count": 41745,
      "max": [
        0.31623798608779907,
        0.13926300406455994,
        0.3427160084247589
      ],
      "min": [
        -0.31623798608779907,
        -0.13926300406455994,
        -0.3427160084247589
      ],
      "type": "VEC3"
    },
    {
      "bufferView": 2,
      "byteOffset": 1354188,
      "componentType": 5126,
      "count": 41745,
      "max": [
        0.9999958276748657,
        0.9999791979789734,
        0.9999953508377075
      ],
      "min": [
        -0.999976396560669,
        -0.999993622303009,
        -0.9999748468399048
      ],
      "type": "VEC3"
    },
    {
      "bufferView": 1,
      "byteOffset": 284416,
      "componentType": 5126,
      "count": 41745,
      "max": [
        0.9783449769020081,
        0.9563339948654175
      ],
      "min": [
        0.012413999997079372,
        0.07490500062704086
      ],
      "type": "VEC2"
    },
    {
      "bufferView": 0,
      "byteOffset": 814800,
      "componentType": 5125,
      "count": 241344,
      "type": "SCALAR"
    },
    {
      "bufferView": 2,
      "byteOffset": 1855128,
      "componentType": 5126,
      "count": 65532,
      "max": [
        0.002933999989181757,
        -0.06621800363063812,
        0.275534987449646
      ],
      "min": [
        -0.002933999989181757,
        -0.13372500240802765,
        -0.316303014755249
      ],
      "type": "VEC3"
    },
    {
      "bufferView": 2,
      "byteOffset": 2641512,
      "componentType": 5126,
      "count": 65532,
      "max": [
        0.9998740553855896,
        0.9999144077301025,
        0.9996039271354675
      ],
      "min": [
        -0.9998735785484314,
        -0.9999897480010986,
        -0.9999837279319763
      ],
      "type": "VEC3"
    },
    {
      "bufferView": 1,
      "byteOffset": 618376,
      "componentType": 5126,
      "count": 65532,
      "max": [
        0.9634940028190613,
        0.926609992980957
      ],
      "min": [
        0.9634940028190613,
        0.926609992980957
      ],
      "type": "VEC2"
    },
    {
      "bufferView": 0,
      "byteOffset": 1780176,
      "componentType": 5125,
      "count": 227175,
      "type": "SCALAR"
    },
    {
      "bufferView": 2,
      "byteOffset": 3427896,
      "componentType": 5126,
      "count": 11093,
      "max": [
        0.002933999989181757,
        -0.12875500321388245,
        0.10933300107717514
      ],
      "min": [
        -0.002933999989181757,
        -0.13616499304771423,
        0.02011200040578842
      ],
      "type": "VEC3"
    },
    {
      "bufferView": 2,
      "byteOffset": 3561012,
      "componentType": 5126,
      "count": 11093,
      "max": [
        0.999871551990509,
        1.0,
        0.9996989965438843
      ],
      "min": [
        -0.9998714327812195,
        -0.9889868497848511,
        -0.9999955892562866
      ],
      "type": "VEC3"
    },
    {
      "bufferView": 1,
      "byteOffset": 1142632,
      "componentType": 5126,
      "count": 11093,
      "max": [
        0.9634940028190613,
        0.926609992980957
      ],
      "min": [
        0.9634940028190613,
        0.926609992980957
      ],
      "type": "VEC2"
    },
    {
      "bufferView": 0,
      "byteOffset": 2688876,
      "componentType": 5125,
      "count": 38679,
      "type": "SCALAR"
    }
  ],
  "asset": {
    "extras": {
      "author": "Tineli (https://sketchfab.com/tineli)",
      "license": "CC-BY-4.0 (http://creativecommons.org/licenses/by/4.0/)",
      "source": "https://sketchfab.com/3d-models/barfoot-mec-ss-jersey-line-bd74ab1d9c614d808e6068ed580b9063",
      "title": "Barfoot_MEC_SS Jersey Line"
    },
    "generator": "Sketchfab-12.68.0",
    "version": "2.0"
  },
  "bufferViews": [
    {
      "buffer": 0,
      "byteLength": 2843592,
      "name": "floatBufferViews",
      "target": 34963
    },
    {
      "buffer": 0,
      "byteLength": 1231376,
      "byteOffset": 2843592,
      "byteStride": 8,
      "name": "floatBufferViews",
      "target": 34962
    },
    {
      "buffer": 0,
      "byteLength": 3694128,
      "byteOffset": 4074968,
      "byteStride": 12,
      "name": "floatBufferViews",
      "target": 34962
    }
  ],
  "buffers": [
    {
      "byteLength": 7769096,
      "uri": "scene.bin"
    }
  ],
  "extensionsRequired": [
    "KHR_materials_pbrSpecularGlossiness"
  ],
  "extensionsUsed": [
    "KHR_materials_pbrSpecularGlossiness"
  ],
  "images": [
    {
      "uri": "textures/Lock_diffuse.jpeg"
    },
    {
      "uri": "textures/SSJersey_Jersey_Inside_diffuse.jpeg"
    },
    {
      "uri": "textures/SSJersey_Outside_Lines_diffuse.jpeg"
    }
  ],
  "materials": [
    {
      "doubleSided": true,
      "extensions": {
        "KHR_materials_pbrSpecularGlossiness": {
          "diffuseFactor": [
            1.0,
            1.0,
            1.0,
            1.0
          ],
          "glossinessFactor": 0.4,
          "specularFactor": [
            0.0,
            0.0,
            0.0
          ]
        }
      },
      "name": "Line_Inside_Down"
    },
    {
      "doubleSided": true,
      "extensions": {
        "KHR_materials_pbrSpecularGlossiness": {
          "diffuseFactor": [
            1.0,
            1.0,
            1.0,
            1.0
          ],
          "glossinessFactor": 0.4,
          "specularFactor": [
            0.0,
            0.0,
            0.0
          ]
        }
      },
      "name": "Line_Inside_Up"
    },
    {
      "doubleSided": true,
      "extensions": {
        "KHR_materials_pbrSpecularGlossiness": {
          "diffuseFactor": [
            1.0,
            1.0,
            1.0,
            1.0
          ],
          "diffuseTexture": {
            "index": 0
          },
          "glossinessFactor": 0.4,
          "specularFactor": [
            0.0,
            0.0,
            0.0
          ]
        }
      },
      "name": "Lock"
    },
    {
      "doubleSided": true,
      "extensions": {
        "KHR_materials_pbrSpecularGlossiness": {
          "diffuseFactor": [
            1.0,
            1.0,
            1.0,
            1.0
          ],
          "diffuseTexture": {
            "index": 1
          },
          "glossinessFactor": 0.4,
          "specularFactor": [
            0.0,
            0.0,
            0.0
          ]
        }
      },
      "name": "SSJersey_Jersey_Inside"
    },
    {
      "doubleSided": true,
      "extensions": {
        "KHR_materials_pbrSpecularGlossiness": {
          "diffuseFactor": [
            1.0,
            1.0,
            1.0,
            1.0
          ],
          "diffuseTexture": {
            "index": 2
          },
          "glossinessFactor": 0.4,
          "specularFactor": [
            0.0,
            0.0,
            0.0
          ]
        }
      },
      "name": "SSJersey_Outside_Lines"
    },
    {
      "doubleSided": true,
      "extensions": {
        "KHR_materials_pbrSpecularGlossiness": {
          "diffuseFactor": [
            1.0,
            1.0,
            1.0,
            1.0
          ],
          "glossinessFactor": 0.4,
          "specularFactor": [
            0.0,
            0.0,
            0.0
          ]
        }
      },
      "name": "Zipper"
    }
  ],
  "meshes": [
    {
      "name": "Object_0",
      "primitives": [
        {
          "attributes": {
            "NORMAL": 1,
            "POSITION": 0,
            "TEXCOORD_0": 2
          },
          "indices": 3,
          "material": 0,
          "mode": 4
        }
      ]
    },
    {
      "name": "Object_1",
      "primitives": [
        {
          "attributes": {
            "NORMAL": 5,
            "POSITION": 4,
            "TEXCOORD_0": 6
          },
          "indices": 7,
          "material": 1,
          "mode": 4
        }
      ]
    },
    {
      "name": "Object_2",
      "primitives": [
        {
          "attributes": {
            "NORMAL": 9,
            "POSITION": 8,
            "TEXCOORD_0": 10
          },
          "indices": 11,
          "material": 2,
          "mode": 4
        }
      ]
    },
    {
      "name": "Object_3",
      "primitives": [
        {
          "attributes": {
            "NORMAL": 13,
            "POSITION": 12,
            "TEXCOORD_0": 14
          },
          "indices": 15,
          "material": 3,
          "mode": 4
        }
      ]
    },
    {
      "name": "Object_4",
      "primitives": [
        {
          "attributes": {
            "NORMAL": 17,
            "POSITION": 16,
            "TEXCOORD_0": 18
          },
          "indices": 19,
          "material": 4,
          "mode": 4
        }
      ]
    },
    {
      "name": "Object_5",
      "primitives": [
        {
          "attributes": {
            "NORMAL": 21,
            "POSITION": 20,
            "TEXCOORD_0": 22
          },
          "indices": 23,
          "material": 5,
          "mode": 4
        }
      ]
    },
    {
      "name": "Object_6",
      "primitives": [
        {
          "attributes": {
            "NORMAL": 25,
            "POSITION": 24,
            "TEXCOORD_0": 26
          },
          "indices": 27,
          "material": 5,
          "mode": 4
        }
      ]
    }
  ],
  "nodes": [
    {
      "children": [
        1
      ],
      "matrix": [
        1.0,
        0.0,
        0.0,
        0.0,
        0.0,
        2.220446049250313e-16,
        -1.0,
        0.0,
        0.0,
        1.0,
        2.220446049250313e-16,
        0.0,
        0.0,
        0.0,
        0.0,
        1.0
      ],
      "name": "Sketchfab_model"
    },
    {
      "children": [
        2,
        3,
        4,
        5,
        6,
        7,
        8
      ],
      "name": "SSJersey_Line.obj.cleaner.materialmerger.gles"
    },
    {
      "mesh": 0,
      "name": "Object_2"
    },
    {
      "mesh": 1,
      "name": "Object_3"
    },
    {
      "mesh": 2,
      "name": "Object_4"
    },
    {
      "mesh": 3,
      "name": "Object_5"
    },
    {
      "mesh": 4,
      "name": "Object_6"
    },
    {
      "mesh": 5,
      "name": "Object_7"
    },
    {
      "mesh": 6,
      "name": "Object_8"
    }
  ],
  "samplers": [
    {
      "magFilter": 9729,
      "minFilter": 9987,
      "wrapS": 10497,
      "wrapT": 10497
    }
  ],
  "scene": 0,
  "scenes": [
    {
      "name": "Sketchfab_Scene",
      "nodes": [
        0
      ]
    }
  ],
  "textures": [
    {
      "sampler": 0,
      "source": 0
    },
    {
      "sampler": 0,
      "source": 1
    },
    {
      "sampler": 0,
      "source": 2
    }
  ]
}
